<?xml version="1.0" encoding="UTF-8"?>
<svg version="1.1" viewBox="0 0 1300 1040" width="1280" height="1280" xmlns="http://www.w3.org/2000/svg">
<path transform="translate(0)" d="m0 0h1300v1040h-1300z" fill="#FAF7E8"/>
<path transform="translate(320,400)" d="m0 0h13l15 2 12 4 16 8 11 9 8 8 9 13 7 15 4 16 1 7v10l-3 17-5 14-7 13-1 5 17 17v2l3 1 5 5v2l4 2 8 8v2l4 2 21 21 6 9-1 7-4 5-4 2h-7l-9-6-56-56-5-4-6 1-16 8-14 4-5 1h-26l-16-4-16-8-11-8-8-7-10-14-7-14-4-12-2-17 1-17 3-13 5-12 8-13 6-8 8-7 13-9 16-7 11-3z" fill="#7EBC32"/>
<path transform="translate(323,425)" d="m0 0h10l14 3 12 5 11 8 9 10 8 15 3 10 1 15-3 16-7 14-11 12-7 6-16 8-9 2h-20l-12-3-12-6-10-8-9-11-6-13-3-11v-18l3-12 7-14 7-9 9-8 14-7 10-3z" fill="#FAF7E8"/>
<path transform="translate(326,401)" d="m0 0h17l15 4 16 8 12 9 9 9 9 13 7 15 4 16 1 7v10l-3 17-5 14-7 13-1 5 17 17v2l3 1 5 5v2l4 2 8 8v2l4 2 21 21 6 9-1 7-4 5-4 2h-7l-9-6-56-56-5-4-4-4-2-12h-5l1-10 3-7 6-8 6-12 3-16-1-15-4-12-8-14-9-10-13-8v-4l-10-1-7-4v-2l-8 2-7-1 2-4 13-1-2-5-6-3-5-2z" fill="#7EBC32"/>
<path transform="translate(979,450)" d="m0 0h7l4 4v67l-3 11-7 9-10 6-5 1h-15l-10-4-8-7-5-10v-19l4-8 9-8 8-3h10l10 4 6 3v-43z" fill="#BC148F"/>
<path transform="translate(672,488)" d="m0 0h8l9 2 8 5 8 9 3 10v12l-4 10-5 5-6 5-6 2h-10l-10-4-6-4-1 1-1 31-4 2-7-1-3-3v-57l4-11 6-7 9-5z" fill="#80BC32"/>
<path transform="translate(743,488)" d="m0 0 14 1 9 5 7 8 2 5v6l-5 7-10 5-4 1h-11l-11-3 2 5 5 4 3 1h12l9-2h6l2 3-1 7-5 4-5 2-6 1h-12l-9-2-10-6-6-7-3-7v-14l3-8 4-6 7-6 7-3z" fill="#7FBC32"/>
<path transform="translate(514,488)" d="m0 0 13 1 8 4 7 7 2 4v11l-6 7-11 4h-12l-6-2h-5l3 5 6 4h14l8-2h7l2 4-1 5-6 5-9 3h-14l-9-2-10-6-7-9-2-6v-13l4-10 9-9 8-4z" fill="#80BC32"/>
<path transform="translate(1022,489)" d="m0 0h17l8 3 7 6 3 6v9l-4 7-4 3-10 3h-11l-12-3 3 6 8 4h13l8-2h6l2 3-1 7-5 4-10 3h-16l-11-4-9-8-4-7-1-4v-15l4-8 5-6 8-5z" fill="#BC148F"/>
<path transform="translate(373,529)" d="m0 0 1 3-1 6v3h-2l2 2 4 1 2 12 3 3-10 4-12 6-14 4-5 1h-26l-16-4-9-4 1-2 5 1-1-5-7-4v-2h-3v-2l-4-2-7-8-1-4 3-1 5 2 6 2v-5l-3-4 4 2 8 6 10 5 12 3h20l11-3 14-7z" fill="#99B838"/>
<path transform="translate(809,453)" d="m0 0h13l4 4v6l-5 4-9 3-3 4-1 3v12l12 1 2 1 1 9-4 4h-12v66l-4 4-8-1-3-2v-98l2-8 4-6 8-5z" fill="#BC148F"/>
<path transform="translate(880,489)" d="m0 0h16l9 3 5 4 5 8 2 8v27l-2 6-2 1h-8l-4-4-1-28-2-5-6-4h-9l-5 5-2 3-1 29-3 4h-8l-4-4v-34l3-8 4-5 9-5z" fill="#BC148F"/>
<path transform="translate(578,488)" d="m0 0h8l8 2 9 6 3 4v6l-4 3h-5l-9-5h-9l-7 4-4 7v7l4 8 6 3h9l10-4 5-1 5 6-1 5-8 6-10 3h-10l-10-3-9-6-6-9-1-3v-15l3-9 7-8 8-5z" fill="#80BC32"/>
<path transform="translate(320,400)" d="m0 0h13v1h-7v6l9 3 3 3v4l-10 2-4 1-1 2h7l8-1v2l5 2 12 3v3l-5-1-11-3-6-1h-10l-14 3-12 5-11 8-7 8-2-1v-7-2h-4l-1-6v-2h2l2-4 4-1h4l1-2 1-1h5l1-3 5-4 3-3 8-4 2-2v-3h-9l3-2z" fill="#99B838"/>
<path transform="translate(1087,489)" d="m0 0h12l4 2 1 2-1 9-5 2-9 2-5 6-1 4-1 25-2 4-2 1h-8l-3-2-1-3v-28l2-10 6-8 7-4z" fill="#BC148F"/>
<path transform="translate(466,489)" d="m0 0h14l4 4-1 8-3 3-10 2-5 4-2 4-1 28-3 4h-8l-4-2-2-7 1-23 3-12 6-8 8-4z" fill="#7EBC32"/>
<path transform="translate(513,584)" d="m0 0h31l1 1v11h9l3 2 2 6h3l4-7 2-1h8l4 3v12l-2 5h-9l-5-4-3-4h-2l-1 7-4 1-1-1v-9l-1-3h-6l-1 12-5 1-1-1-1-24h-9l-1 1-1 23-4 1-2-1-1-24h-9l-1-1v-5z" fill="#87BB34"/>
<path transform="translate(834,490)" d="m0 0h8l3 2 1 38 5 4 1 2v7l-1 2-3 1h-8l-7-3-3-6v-45z" fill="#BC148F"/>
<path transform="translate(623,490)" d="m0 0 7 2 1 1 1 39 4 2 2 2v6l-4 4h-9l-6-4-3-6v-44z" fill="#80BC32"/>
<path transform="translate(303,440)" d="m0 0h7l9 6 5 9-1 7-4 7-7 4h-11l-6-4-4-6-1-4v-7l4-6 6-5z" fill="#9AB839"/>
<path transform="translate(289,482)" d="m0 0h10l6 4 5 8 1 6-4 8-7 6h-12l-8-5-3-9 1-9 6-7z" fill="#9AB839"/>
<path transform="translate(326,507)" d="m0 0 9 1 7 6 2 5v11l-7 8-4 2h-9l-7-4-5-7v-11l5-7 5-3z" fill="#BC168E"/>
<path transform="translate(348,440)" d="m0 0 9 2 6 5 3 6v9l-4 7-6 4h-10l-6-3-4-4-2-5v-9l4-7 6-4z" fill="#9AB839"/>
<path transform="translate(360,482)" d="m0 0h7l8 4 4 6 1 5-1 7-6 8-4 2h-11l-6-4-4-6-1-9 4-8 3-3z" fill="#BC148F"/>
<path transform="translate(671,503)" d="m0 0h12l6 4 4 8-1 9-6 8-9 3-9-3-6-7-1-2v-10l4-6z" fill="#FAF7E8"/>
<path transform="translate(953,503)" d="m0 0h10l6 4 4 5 1 3v7l-3 6-8 7h-9l-6-3-4-5-1-3v-11l4-6z" fill="#FAF7E8"/>
<path transform="translate(325,472)" d="m0 0h9l8 7 2 4v8l-3 6-6 5-10 1-8-4-4-5v-12l7-8z" fill="#9AB839"/>
<path transform="translate(683,592)" d="m0 0 5 2 3 4-1 4-3 1 2 6 4 3-1 4-7-1-3-4-2-6v-5l-6 3-1 2-1 10-5 1h-19l-5-5v-9l3-5 1-1h10l5 5 2 8 3 1 2-10 4-4 7-2z" fill="#85BB34"/>
<path transform="translate(840,584)" d="m0 0h6l6 7 1 2 1 12 1 2 2-1 4-9 2-1h9l3 3 1 5v11h-3l-2-13h-7l-1 10-2 4h-9l-3-3-2-13-4 1-2 7v16l-5-1-1-11 1-24z" fill="#88BB34"/>
<path transform="translate(917,596)" d="m0 0h8l4 3 5-3h8l3 4v2l6-3 3-3h9l3 3v4l-9-1-2 1v6l1 1h10l-1 5-1 1h-10l-5-5-3-6-2-1v10l-2 2h-9l-5-6-3-9-4 1-1 2-1 11-3 1-3-2 1-13z" fill="#8CBA35"/>
<path transform="translate(970,589)" d="m0 0 4 1 1 5v12l1 7 2-1 2-13 4-4 4-1 8 2 4 5v7l-4 6-1 1h-8l-3-1v9l-5-1-1-6-7-2-3-4v-11l1-5v-5z" fill="#82BB33"/>
<path transform="translate(897,583)" d="m0 0h3l1 2v20l-3 9-3 2h-10l-5-5-1-5 3-7 4-3h9l1-12z" fill="#89BA34"/>
<path transform="translate(760,596)" d="m0 0 4 1 1 13h7l1-14 5 1v21l-5 5-3 1h-8l-3-3v-23z" fill="#9AB839"/>
<path transform="translate(808,596)" d="m0 0h9l6 5 1 7-3 6-7 3-7-2-5-3 1-12z" fill="#84BB33"/>
<path transform="translate(742,595)" d="m0 0 7 1 5 6 1 2v9l-5 3h-11l-4-5v-10l2-4z" fill="#85BB33"/>
<path transform="translate(704,596)" d="m0 0h4l1 13 5-1 1-11 4-1 1 3v11l6-1v-13h4l1 2v11l-2 5-4 2h-16l-4-2-2-4v-13z" fill="#86BB34"/>
<path transform="translate(647,596)" d="m0 0h10l5 5v13l-7 1h-9l-3-4v-9l3-5z" fill="#82BC33"/>
<path transform="translate(917,596)" d="m0 0h8l4 3 5-3h8l1 1v11h-2v-8h-7v12l9-2v5l-1 1h-9l-5-6-3-9-4 1-1 2-1 11-3 1-3-2 1-13z" fill="#81BC33"/>
<path transform="translate(616,596)" d="m0 0h18l4 3 1 3v9l-1 4h-4l-1-13-5-1-1 13-4 1v-13l-5 1-1 2-1 10-4-1v-11l2-6z" fill="#87BB34"/>
<path transform="translate(568,596)" d="m0 0h8l4 3v12l-2 5h-9l-4-3-1-4v-9z" fill="#81BC33"/>
<path transform="translate(1011,595)" d="m0 0 7 2 2 3v9l-2 6-1 1h-8l-5-5v-10l4-5z" fill="#84BB33"/>
<path transform="translate(1024,503)" d="m0 0h13l5 3 1 4-1 3-6 3h-12l-7-2-1-2 5-7z" fill="#FAF7E8"/>
<path transform="translate(1030,596)" d="m0 0h6l3 2 1 14-4 4h-10l-3-3 1-3 2-2-2-3 1-6z" fill="#9BB93C"/>
<path transform="translate(512,503)" d="m0 0h13l4 4v6l-6 3h-10l-9-1 1-6 5-5z" fill="#FAF7E8"/>
<path transform="translate(742,503)" d="m0 0h12l5 3v7l-7 3h-10l-7-1-1-5 5-5z" fill="#FAF7E8"/>
<path transform="translate(596,596)" d="m0 0h9l2 2v14l-2 4h-10l-2-1v-17z" fill="#84BB33"/>
<path transform="translate(510,585)" d="m0 0h27l-2 2 2 2-9 1-1 1-1 23-5 1-1-24h-9l-1-1z" fill="#82BC33"/>
<path transform="translate(840,584)" d="m0 0h6l1 4h-4l-1 7 1 4-2 3v22l-5-1-1-11 1-24z" fill="#86BB34"/>
<path transform="translate(619,470)" d="m0 0h8l4 3v10l-3 2h-3v2l-4-2-5-2-1-2v-7z" fill="#82BC33"/>
<path transform="translate(834,470)" d="m0 0h8l4 3v8l-3 4-7 1-5-2-1-2v-9z" fill="#BD1490"/>
<path transform="translate(246,458)" d="m0 0 1 3-2 11 5 14-1 9-4 5-1 7h-1l-2-17 1-17 3-13z" fill="#9AB839"/>
<path transform="translate(741,501)" d="m0 0 12 1v1l-11 1-4 3h-2l-1 7 17 2-3 2-14-1 5 3 1 2 11 2h8l-4 2h-11l-11-3-1 5-3-2-1-6 2-10 5-5z" fill="#99B838"/>
<path transform="translate(970,589)" d="m0 0 4 1 1 5v12l1 7 2-1 2-13 4-4 4-1v2l-5 3-2 5-1 18h-1l-1-6-7-2-3-4v-11l1-5v-5z" fill="#9AB839"/>
<path transform="translate(790,591)" d="m0 0 5 1 4 5v4l-3 3 1 5 4 3-1 3-5 1-5-5-1-19z" fill="#87BB34"/>
<path transform="translate(683,592)" d="m0 0 5 2 3 4-1 4-3 1 2 6 4 3-1 4-7-1-3-4-1-12z" fill="#84BB33"/>
<path transform="translate(505,506)" d="m0 0h2l-3 9h9l9 1-2 2h-8l2 5 17 1-4 2h-12l-6-2h-7l-3-5h2v-7z" fill="#9AB839"/>
<path transform="translate(269,461)" d="m0 0 2 1-4 17-1 17h-3l-3-10-1-11 4-4h2l2-5z" fill="#99B838"/>
<path transform="translate(917,596)" d="m0 0h8l4 3 2 1-2 10h-1l-3-9-4 1-1 2-1 11-3 1-3-2 1-13z" fill="#9AB839"/>
<path transform="translate(760,596)" d="m0 0 4 1 1 13h7l1-14h4v16l-4 2-6 1-4-3-2-5z" fill="#83BB33"/>
<path transform="translate(726,596)" d="m0 0h4l1 2v11l-2 5-4 2-11-1 4-6v-9h1l1 10 6-1z" fill="#87BB34"/>
<path transform="translate(847,586)" d="m0 0 5 5 1 2 1 16-2-1-2-15-1 6 1 5v9h-1l-2-13-4 1-2 7h-1v-6l2-3-1-8 2-3h4z" fill="#9AB839"/>
<path transform="translate(850,592)" d="m0 0h1l2 16 2 1 1-3 4-6v11l-1 3 3-1-1 3h-9l-2-2-1-14-1-2z" fill="#99B838"/>
<path transform="translate(1010,599)" d="m0 0 6 1 2 5 1-5h1v9l-1 5-1-3-7 2-2-1v-10z" fill="#AAC459"/>
<path transform="translate(616,596)" d="m0 0h18l-4 2-5 2-7 1-2 14-4-1v-11l2-6z" fill="#86BB34"/>
<path transform="translate(570,599)" d="m0 0 6 1v5 2l2 1 2-2v5l-9 2-2-1-1-10z" fill="#9AB839"/>
<path transform="translate(936,599)" d="m0 0 5 1v8l3-1v7l-2-3-2 1h-6l-1-9 1-3z" fill="#A5BF4D"/>
<path transform="translate(448,504)" d="m0 0h1v15l3 8-3 7h-2v8l-2-4 1-24z" fill="#9AB839"/>
<path transform="translate(952,603)" d="m0 0h1l2 6 1 1h10l-1 5-1 1h-10l-3-2v-7z" fill="#7FBC32"/>
<path transform="translate(628,598)" d="m0 0 5 2v1h-5l-1 13-4 1v-13l-6 1 1-3 7-1z" fill="#9AB839"/>
<path transform="translate(463,508)" d="m0 0 2 2-2 4-1 28-3 4h-8l-2-2h9l2-3-1-25z" fill="#9AB839"/>
<path transform="translate(888,601)" d="m0 0h6l1 1v7l-4 3-5-2-1-6z" fill="#FAF7E8"/>
<path transform="translate(605,597)" d="m0 0 2 1-1 8-6-2 4 5v3l-7 1-2-4 3-3-1-5 1-1h7z" fill="#A4BF4C"/>
<path transform="translate(651,600)" d="m0 0 5 2 1 7-2 2h-5l-2-2v-7z" fill="#FAF7E8"/>
<path transform="translate(810,601)" d="m0 0h6l2 4-1 5-1 1h-5l-3-5z" fill="#FAF7E8"/>
<path transform="translate(743,600)" d="m0 0 4 1 2 4-1 6h-6l-2-2v-7z" fill="#FAF7E8"/>
<path transform="translate(987,601)" d="m0 0h5l2 2v6l-3 2-6-1v-7z" fill="#FAF7E8"/>
<path transform="translate(775,614)" d="m0 0 2 2-1 5-6 3h-8l-1-4 11-2z" fill="#82BC33"/>
<path transform="translate(662,603)" d="m0 0h1l1 6 3 1 1-7h1v7l1 6h-22v-1l14-1z" fill="#9AB839"/>
<path transform="translate(596,596)" d="m0 0h9v4l-7 1 1 5h-2v2l-3-1v-10z" fill="#81BC33"/>
<path transform="translate(1033,603)" d="m0 0 7 4-1 7-2 1h-10l-1-2 10-1-4-6z" fill="#80BC32"/>
<path transform="translate(918,597)" d="m0 0h6v2l-4 1-1 5-1 8h-3v-11z" fill="#7DBC32"/>
<path transform="translate(850,592)" d="m0 0h1l3 22h-4l-1-14-1-2z" fill="#7DBC32"/>
<path transform="translate(981,605)" d="m0 0 2 1v9l1 9h-4v-18z" fill="#81BC32"/>
<path transform="translate(985,601)" d="m0 0 2 1-1 1-1 7 4 2-2 1 1 1h8l-1 2h-8l-3-1-1 2-1-5v-7l1-3z" fill="#9AB839"/>
<path transform="translate(943,598)" d="m0 0 2 4 5-1v2h2l-1 9-3-3-2-4-2-1-1 3z" fill="#9AB839"/>
<path transform="translate(806,597)" d="m0 0 2 1-3 4v5l4 7 9 1-4 2-7-2-5-3 1-12z" fill="#9AB839"/>
<path transform="translate(987,595)" d="m0 0 1 2-5 3-2 5-1 18h-1l-1-6-5-1 2-1 1-3v2l2-1 2-13 4-4z" fill="#9AB839"/>
<path transform="translate(1030,596)" d="m0 0h6l2 1v3h-6l-2-1-1 8h-2l-1-7 4-2z" fill="#81BC32"/>
<path transform="translate(843,589)" d="m0 0 5 1v7h-5l-2-2 1-5z" fill="#FAF7E8"/>
<path transform="translate(415,482)" d="m0 0h1v10l-3 17h-1v-11z" fill="#9AB839"/>
<path transform="translate(742,599)" d="m0 0 7 1 2 6-2 5-1-2-1-8-6 1-1 7h-1l-1-8z" fill="#9AB839"/>
<path transform="translate(599,605)" d="m0 0 5 4v3l-7 1-2-4z" fill="#BBCD76"/>
<path transform="translate(971,601)" d="m0 0h2l2 6v8l-3-1-1-2z" fill="#80BC32"/>
<path transform="translate(760,596)" d="m0 0 4 1v13l-3-3z" fill="#87BB34"/>
<path transform="translate(513,584)" d="m0 0h31v1l-5 1-1 2-4-1v-1l-21-1z" fill="#9AB839"/>
<path transform="translate(718,600)" d="m0 0h1l1 10 3 1h-3l1 4h-7l4-6z" fill="#9AB839"/>
<path transform="translate(650,599)" d="m0 0h6l2 1v9l-2-4-1-3-4-1-2 1-1 7h-1l-1-7z" fill="#9AB839"/>
<path transform="translate(625,601)" d="m0 0 2 1v12h-3v-12z" fill="#7DBC32"/>
<path transform="translate(320,400)" d="m0 0h13v1l-14 2h-7v-2z" fill="#8CBA35"/>
<path transform="translate(563,601)" d="m0 0h1l1 11-4-4h-2l-1 2v-8l1 2h3z" fill="#9AB839"/>
<path transform="translate(962,610)" d="m0 0h4l-1 5-1 1h-10l-3-2 1-2 4 2h7l1-3z" fill="#9AB839"/>
<path transform="translate(681,593)" d="m0 0h1v15l-2-3v-5l-5 1 5-4-2-2z" fill="#9AB839"/>
<path transform="translate(643,602)" d="m0 0 2 2v5h2l1 6-3-1-2-3z" fill="#9AB839"/>
<path transform="translate(970,589)" d="m0 0 4 1 1 5-3 1v-2h-2l-1-4z" fill="#91B937"/>
<path transform="translate(736,599)" d="m0 0 1 4 2 12-4-4v-10z" fill="#9AB839"/>
<path transform="translate(593,598)" d="m0 0h1l1 9 2 2h-2l1 3h-2l-1 3z" fill="#9AB839"/>
<path transform="translate(545,600)" d="m0 0 7 1v1l-6 1-1 12h-1v-14z" fill="#9AB839"/>
</svg>
